<svg width="24" height="24" viewBox="0 0 24 24" fill="none" xmlns="http://www.w3.org/2000/svg">
<path d="M12 1.5C12.8234 1.49988 13.617 1.80757 14.2252 2.36263C14.8333 2.9177 15.212 3.68005 15.2868 4.5H20.4C20.628 4.50007 20.8475 4.58669 21.0142 4.74237C21.1808 4.89804 21.2821 5.11116 21.2976 5.33866C21.3132 5.56615 21.2418 5.79107 21.0979 5.96796C20.954 6.14485 20.7483 6.26052 20.5224 6.2916L20.4 6.3H19.7004L19.1544 11.0352C17.8016 10.6618 16.3649 10.7295 15.0531 11.2282C13.7413 11.7269 12.6226 12.6309 11.8595 13.8087C11.0964 14.9865 10.7287 16.3769 10.8096 17.778C10.8905 19.1791 11.416 20.5179 12.3096 21.6H8.20321C7.61443 21.6001 7.04616 21.3837 6.60651 20.9921C6.16687 20.6005 5.88652 20.0609 5.81881 19.476L4.29841 6.3H3.60001C3.38253 6.29999 3.1724 6.22123 3.0085 6.07828C2.84459 5.93533 2.73799 5.73787 2.70841 5.5224L2.70001 5.4C2.70002 5.18252 2.77878 4.97239 2.92173 4.80848C3.06468 4.64458 3.26215 4.53798 3.47761 4.5084L3.60001 4.5H8.71321C8.78806 3.68005 9.16673 2.9177 9.77486 2.36263C10.383 1.80757 11.1767 1.49988 12 1.5V1.5ZM12 3.3C11.274 3.3 10.668 3.816 10.53 4.5H13.47C13.3308 3.816 12.726 3.3 12 3.3V3.3ZM22.8 17.4C22.8 18.8322 22.2311 20.2057 21.2184 21.2184C20.2057 22.2311 18.8322 22.8 17.4 22.8C15.9678 22.8 14.5943 22.2311 13.5816 21.2184C12.5689 20.2057 12 18.8322 12 17.4C12 15.9678 12.5689 14.5943 13.5816 13.5816C14.5943 12.5689 15.9678 12 17.4 12C18.8322 12 20.2057 12.5689 21.2184 13.5816C22.2311 14.5943 22.8 15.9678 22.8 17.4V17.4ZM19.6248 16.0248C19.7375 15.9121 19.8008 15.7593 19.8008 15.6C19.8008 15.4407 19.7375 15.2879 19.6248 15.1752C19.5121 15.0625 19.3593 14.9992 19.2 14.9992C19.0407 14.9992 18.8879 15.0625 18.7752 15.1752L17.4 16.5516L16.0248 15.1752C15.9121 15.0625 15.7593 14.9992 15.6 14.9992C15.4407 14.9992 15.2879 15.0625 15.1752 15.1752C15.0625 15.2879 14.9993 15.4407 14.9993 15.6C14.9993 15.7593 15.0625 15.9121 15.1752 16.0248L16.5516 17.4L15.1752 18.7752C15.1194 18.831 15.0752 18.8972 15.045 18.9701C15.0148 19.043 14.9993 19.1211 14.9993 19.2C14.9993 19.2789 15.0148 19.357 15.045 19.4299C15.0752 19.5028 15.1194 19.569 15.1752 19.6248C15.231 19.6806 15.2972 19.7248 15.3701 19.755C15.443 19.7852 15.5211 19.8008 15.6 19.8008C15.6789 19.8008 15.757 19.7852 15.8299 19.755C15.9028 19.7248 15.969 19.6806 16.0248 19.6248L17.4 18.2484L18.7752 19.6248C18.831 19.6806 18.8972 19.7248 18.9701 19.755C19.043 19.7852 19.1211 19.8008 19.2 19.8008C19.2789 19.8008 19.357 19.7852 19.4299 19.755C19.5028 19.7248 19.569 19.6806 19.6248 19.6248C19.6806 19.569 19.7248 19.5028 19.755 19.4299C19.7852 19.357 19.8008 19.2789 19.8008 19.2C19.8008 19.1211 19.7852 19.043 19.755 18.9701C19.7248 18.8972 19.6806 18.831 19.6248 18.7752L18.2484 17.4L19.6248 16.0248Z" fill="black"/>
</svg>
