<svg width="24" height="24" viewBox="0 0 24 24" fill="none" xmlns="http://www.w3.org/2000/svg">
<path d="M20 3H19V1H17V3H7V1H5V3H4C3.46957 3 2.96086 3.21071 2.58579 3.58579C2.21071 3.96086 2 4.46957 2 5V21C2 21.5304 2.21071 22.0391 2.58579 22.4142C2.96086 22.7893 3.46957 23 4 23H20C20.5304 23 21.0391 22.7893 21.4142 22.4142C21.7893 22.0391 22 21.5304 22 21V5C22 4.46957 21.7893 3.96086 21.4142 3.58579C21.0391 3.21071 20.5304 3 20 3ZM7.53 21H4V17.47L13.41 8.06L16.94 11.59L7.53 21ZM19.72 8.81L17.88 10.65L14.35 7.12L16.2 5.28C16.2858 5.1917 16.3883 5.1215 16.5017 5.07357C16.6151 5.02564 16.7369 5.00094 16.86 5.00094C16.9831 5.00094 17.1049 5.02564 17.2183 5.07357C17.3317 5.1215 17.4343 5.1917 17.52 5.28L19.72 7.48C19.8074 7.5673 19.8767 7.67096 19.924 7.78507C19.9713 7.89917 19.9956 8.02148 19.9956 8.145C19.9956 8.26852 19.9713 8.39083 19.924 8.50493C19.8767 8.61904 19.8074 8.7227 19.72 8.81V8.81Z" fill="black"/>
</svg>
