<svg width="34" height="34" viewBox="0 0 34 34" fill="none" xmlns="http://www.w3.org/2000/svg">
<path d="M29.75 14.1667C29.75 24.0833 17 32.5833 17 32.5833C17 32.5833 4.25 24.0833 4.25 14.1667C4.25 10.7852 5.5933 7.54215 7.98439 5.15106C10.3755 2.75997 13.6185 1.41667 17 1.41667C20.3815 1.41667 23.6245 2.75997 26.0156 5.15106C28.4067 7.54215 29.75 10.7852 29.75 14.1667Z" stroke="white" stroke-width="2" stroke-linecap="round" stroke-linejoin="round"/>
<path d="M17 18.4167C19.3472 18.4167 21.25 16.5139 21.25 14.1667C21.25 11.8195 19.3472 9.91667 17 9.91667C14.6528 9.91667 12.75 11.8195 12.75 14.1667C12.75 16.5139 14.6528 18.4167 17 18.4167Z" stroke="white" stroke-width="2" stroke-linecap="round" stroke-linejoin="round"/>
</svg>
