<svg width="39" height="39" viewBox="0 0 39 39" fill="none" xmlns="http://www.w3.org/2000/svg">
<g clip-path="url(#clip0_1256_6564)">
<path d="M19.2 0C8.6364 0 0 8.6364 0 19.2C0 29.7636 8.6364 38.4 19.2 38.4C29.7636 38.4 38.4 29.7636 38.4 19.2C38.4 8.6364 29.856 0 19.2 0ZM28.032 27.744C27.6492 28.3188 26.9748 28.512 26.4 28.1244C21.888 25.344 16.2252 24.768 9.5004 26.3004C8.832 26.4984 8.256 26.0184 8.0616 25.4364C7.8744 24.768 8.3496 24.1932 8.9244 24C16.2252 22.368 22.5624 23.0364 27.5496 26.112C28.2252 26.4 28.3176 27.168 28.0308 27.744H28.032ZM30.3372 22.4628C29.856 23.1384 28.9932 23.4264 28.3176 22.944C23.1372 19.7748 15.2616 18.8196 9.2184 20.7372C8.4492 20.9244 7.5804 20.544 7.3932 19.7736C7.2 19.0056 7.5804 18.1428 8.3496 17.9496C15.3624 15.8364 23.9988 16.8984 29.9496 20.5428C30.5304 20.8308 30.8184 21.792 30.3372 22.4616V22.4628ZM30.5316 17.088C24.3816 13.4364 14.112 13.056 8.256 14.8812C7.2948 15.168 6.3372 14.5932 6.0492 13.7244C5.7624 12.768 6.3372 11.8056 7.2 11.5176C14.0196 9.5004 25.2492 9.8868 32.3568 14.1108C33.2196 14.592 33.5052 15.7428 33.0252 16.6056C32.544 17.2812 31.3932 17.5668 30.5304 17.0868L30.5316 17.088Z" fill="white"/>
</g>
<defs>
<clipPath id="clip0_1256_6564">
<rect width="38.4" height="38.4" fill="white"/>
</clipPath>
</defs>
</svg>
