<svg width="20" height="21" viewBox="0 0 20 21" fill="none" xmlns="http://www.w3.org/2000/svg">
<path d="M13.9585 2.32935H6.04183C3.8557 2.32935 2.0835 4.22915 2.0835 6.57268V15.0593C2.0835 17.4029 3.8557 19.3027 6.04183 19.3027H13.9585C16.1446 19.3027 17.9168 17.4029 17.9168 15.0593V6.57268C17.9168 4.22915 16.1446 2.32935 13.9585 2.32935Z" stroke="#3A3A3A" stroke-width="2" stroke-linecap="round" stroke-linejoin="round"/>
<path d="M13.1668 10.2812C13.2645 10.9875 13.1519 11.7089 12.8452 12.3427C12.5384 12.9765 12.053 13.4904 11.458 13.8114C10.8631 14.1324 10.1889 14.2442 9.53126 14.1307C8.87365 14.0173 8.26615 13.6845 7.79517 13.1796C7.32419 12.6747 7.01371 12.0235 6.9079 11.3185C6.80208 10.6135 6.90631 9.89077 7.20577 9.25298C7.50523 8.61519 7.98466 8.09486 8.57587 7.76601C9.16709 7.43715 9.83998 7.31651 10.4988 7.42124C11.1709 7.52808 11.7931 7.86379 12.2735 8.3788C12.7539 8.89381 13.0671 9.5608 13.1668 10.2812Z" stroke="#3A3A3A" stroke-width="2" stroke-linecap="round" stroke-linejoin="round"/>
<path d="M14.354 6.14832H14.3628" stroke="#3A3A3A" stroke-width="2" stroke-linecap="round" stroke-linejoin="round"/>
</svg>
