<svg width="20" height="21" viewBox="0 0 20 21" fill="none" xmlns="http://www.w3.org/2000/svg">
<g clip-path="url(#clip0_1284_7433)">
<path d="M18.7082 3.17797C17.9501 3.75122 17.1107 4.18967 16.2223 4.47643C15.7455 3.88874 15.1119 3.47219 14.4071 3.28314C13.7023 3.09409 12.9603 3.14164 12.2815 3.41937C11.6027 3.69711 11.0199 4.19162 10.6118 4.83602C10.2037 5.48043 9.9901 6.24364 9.99984 7.02243V7.8711C8.60859 7.90977 7.23001 7.579 5.98689 6.90824C4.74376 6.23748 3.67467 5.24756 2.87484 4.02663C2.87484 4.02663 -0.291829 11.6646 6.83317 15.0593C5.20275 16.2457 3.2605 16.8406 1.2915 16.7566C8.4165 21 17.1248 16.7566 17.1248 6.99697C17.1241 6.76058 17.1029 6.52477 17.0615 6.29258C17.8695 5.43839 18.4397 4.35992 18.7082 3.17797V3.17797Z" stroke="#3A3A3A" stroke-width="2" stroke-linecap="round" stroke-linejoin="round"/>
</g>
<defs>
<clipPath id="clip0_1284_7433">
<rect width="19" height="20.368" fill="white" transform="translate(0.5 0.631958)"/>
</clipPath>
</defs>
</svg>
