<svg width="20" height="21" viewBox="0 0 20 21" fill="none" xmlns="http://www.w3.org/2000/svg">
<g clip-path="url(#clip0_1284_7430)">
<path d="M18.344 6.08038C18.2499 5.67762 18.0584 5.30858 17.7887 5.01056C17.5191 4.71254 17.1808 4.49608 16.8081 4.38305C15.4465 4.02661 9.9998 4.02661 9.9998 4.02661C9.9998 4.02661 4.55313 4.02661 3.19147 4.417C2.81879 4.53003 2.48053 4.74648 2.21087 5.04451C1.9412 5.34253 1.74968 5.71156 1.65563 6.11433C1.40643 7.59572 1.28453 9.0985 1.29147 10.6038C1.28259 12.1204 1.40449 13.6346 1.65563 15.1272C1.75931 15.5174 1.95513 15.8724 2.22417 16.1579C2.4932 16.4433 2.82637 16.6495 3.19147 16.7566C4.55313 17.147 9.9998 17.147 9.9998 17.147C9.9998 17.147 15.4465 17.147 16.8081 16.7566C17.1808 16.6436 17.5191 16.4271 17.7887 16.1291C18.0584 15.8311 18.2499 15.462 18.344 15.0593C18.5913 13.589 18.7131 12.0977 18.7081 10.6038C18.717 9.08717 18.5951 7.57293 18.344 6.08038V6.08038Z" stroke="#3A3A3A" stroke-width="2" stroke-linecap="round" stroke-linejoin="round"/>
<path d="M8.21875 13.3789L12.7708 10.6038L8.21875 7.82861V13.3789Z" stroke="#3A3A3A" stroke-linecap="round" stroke-linejoin="round"/>
</g>
<defs>
<clipPath id="clip0_1284_7430">
<rect width="19" height="20.368" fill="white" transform="translate(0.5 0.631958)"/>
</clipPath>
</defs>
</svg>
